<svg viewBox="100 100 180 180" clip-rule="evenodd"
  xmlns="http://www.w3.org/2000/svg">
  <g stroke="null" id="">
    <path class="st156" fill="#4a5c63" d="m223.3 225.5c-2.9 0-5.8 0.2-8.6 0-5.2-0.4-10.3-0.2-15.5-0.4-1.7-0.1-3.5-0.3-5.2-0.4l-4.2-0.3c-1.6-0.1-3.3-0.3-4.9-0.4-2.2-0.2-4.3-0.4-6.5-0.6-3.6-0.3-7.2-0.6-10.7-0.9-1.7-0.2-3.4-0.6-5-0.9s-2.9-1.1-4.2-2.2c-1.2-1-1.8-2.4-2.1-3.9-0.3-1.6-0.4-3.2-0.3-4.8 0.3-4.8 1.1-9.5 2.1-14.2 1.8-8 4.2-15.8 7-23.5 0.6-1.7 1-3.5 1.2-5.3 0.3-2.5 0.2-5-0.5-7.4-0.9-3.5-1.4-7-1.9-10.6-0.3-2.1-0.8-4.2-1-6.3-0.1-1.3-0.1-2.6 0.1-3.9 0.2-1.5 1.7-2.6 3-2.8 1.1-0.2 2.3-0.1 3.3 0.4 1.1 0.5 2.3 0.9 3.4 1.3 2 0.7 3.9 1.6 5.5 2.9 2 1.6 4.1 3.2 6 4.9 1.5 1.3 3.2 2.1 5.2 1.9l8.4-0.6c2.9-0.2 5.8-0.5 8.7-0.5 4.3 0 8.7 0.1 13 0.4 2.7 0.2 5.1-0.5 7.4-1.8 2.9-1.8 5.7-3.6 8.6-5.3 1.7-1 3.4-2 5.2-2.9 0.7-0.3 1.5-0.6 2.3-0.6 1.4-0.1 2.4 0.7 3.1 1.9 0.6 0.9 0.8 1.9 0.9 3 0.3 1.8 0.2 3.5-0.1 5.3-0.6 3.6-1.3 7.3-1.9 10.9-0.2 1-0.3 1.9-0.4 2.9-0.2 1.6 0 3.2 0.6 4.7 1.3 3.3 2.7 6.5 4 9.8 2.4 6.1 4.1 12.4 5.2 18.9 0.6 3.9 1.2 7.9 1.6 11.9 0.3 3.1 0.5 6.2 0 9.2-0.9 5.3-3.8 8-8.9 9.2-1.8 0.4-3.6 0.6-5.4 0.7-3.6 0.3-7.2 0.5-10.9 0.6-2.5-0.2-5.1-0.3-7.6-0.3zm-55.8-81c0 0.2 0 0.4 0.1 0.7 0.7 3.2 1.4 6.4 2.2 9.6 0.2 0.9 0.6 1.8 1.1 2.6 1.1 1.9 2.5 2.2 4.3 1.1 1.6-1 3-2.1 4.5-3.3 0.4-0.3 0.8-0.8 1.1-1.3 0.9-1.4 0.8-2.7-0.5-3.8-1.1-1-2.2-2-3.4-3-1.8-1.5-3.5-3-5.6-4.1-0.5-0.2-1-0.5-1.5-0.6-1.3-0.3-2.4 0.7-2.3 2.1zm75.4 2c0-2.3-2-3.6-3.9-2.5-2.3 1.4-4.6 2.9-6.8 4.4-0.7 0.4-1.2 1.1-1.7 1.8-1 1.4-0.8 2.9 0.3 4.1 0.9 1 1.9 1.9 2.9 2.7 0.7 0.6 1.5 1.2 2.4 1.7 2 1.1 3.8 0.3 4.4-1.9 0-0.1 0.1-0.2 0.1-0.4 0.7-2.7 1.4-5.5 2-8.2 0.1-0.6 0.2-1.1 0.3-1.7zm-38.5 53.2c0.1 3 0.4 5.8 0.9 8.7 0.2 1 0.6 1.5 1.3 1.4 0.7 0 1.1-0.6 1.1-1.7 0.1-3-0.1-5.9-0.6-8.8-0.1-0.5 0-0.9 0.3-1.3 1-1.5 1.7-3.1 2.3-4.7 0.1-0.2 0.2-0.5 0.2-0.7 0.4-1.5-0.3-2.4-1.9-2.4-2.1 0-4.2 0.2-6.2 0.3-0.7 0.1-1.4 0.2-2.1 0.4-1.6 0.5-2 1.9-1.1 3.2 0.7 1.1 1.6 2 2.4 3 1.1 1.1 2.1 2 3.4 2.6zm-17-20.9c-1.3 0-2.6 0.1-3.9 0.6-1.1 0.4-2.1 1.1-2.7 2.2-0.3 0.6-0.3 1.1 0 1.4 0.4 0.4 0.8 0.3 1.3 0.1 3.3-1.5 6.7-1.4 9.9 0.2 0.3 0.1 0.5 0.2 0.8 0.3 0.7 0.2 1.3 0.1 1.6-0.4 0.4-0.5 0.4-1.2-0.1-1.7-0.4-0.5-1-1-1.6-1.3-1.5-1.1-3.4-1.4-5.3-1.4zm29.9 3.6c0 1.9 1.9 3.5 3.9 3.4 1.8-0.1 3.6-2.2 3.3-3.9-0.1-0.5-0.4-1.1-0.7-1.5-0.5-0.7-1.2-1.1-2-1.3-2.3-0.6-4.5 1.1-4.5 3.3z"/>
  </g>
</svg>
